# xmcd
#
# Track frame offsets: 
#        150
#        40664
#        64471
#        95063
#        114059
#        138134
#        160708
#        198967
#        230106
#        243037
#
# Disc length: 3518 seconds
#
# Revision: 4
# Processed by: cddbd v1.5.2PL0 Copyright (c) Steve Scherf et al.
# Submitted via: ExactAudioCopy v0.99pb5
#
DISCID=7b0dbc0a
DTITLE=Stockhausen, Snetberger, Andersen, Heral - Joyosa
DYEAR=2004
DGENRE=Jazz
TTITLE0=Gio
TTITLE1=Basswave
TTITLE2=Madhawi
TTITLE3=Gomme
TTITLE4=Joyosa
TTITLE5=Mona
TTITLE6=Freund
TTITLE7=Our Father
TTITLE8=Jasmin
TTITLE9=The Waltz
EXTD=YEAR: 2004
EXTT0=
EXTT1=
EXTT2=
EXTT3=
EXTT4=
EXTT5=
EXTT6=
EXTT7=
EXTT8=
EXTT9=
PLAYORDER=
